<svg xmlns="http://www.w3.org/2000/svg" width="289.349" height="263.446" viewBox="0 0 289.349 263.446"><defs><style>.a{fill:#fff;}</style></defs><path class="a" d="M363.691,66.1V50.334l-6.152-4.342V0L339.8,8.867V33.4l-7.27-5.151V85.438L321.47,92.3v35.167l51.511-.8V60.342Zm4.515,55.853-41.945.644V94.968l6.273-3.893,2.4-1.472,2.4-1.472L358.9,74.75l2.4-1.472,2.4-1.472,4.515-2.8ZM337.324,37.529l2.48,1.762,2.4,1.7,2.4,1.7,8.15,5.773,2.4,1.685,2.4,1.7,1.358.964V69.076L337.328,82.462Zm7.27-25.682,8.15-4.073V42.6l-8.15-5.8Z" transform="translate(-203.19)"/><path class="a" d="M335.893,233.731h0l-.511-.3-3.352-2.013-.026.044-1.442-.843-.574-.331v51.964l-33.162,21.668-33.177-21.668V230.28l-1.792,1.049h0L241.72,242.955l.048.085h0v51.526l5.887,4,49.178,32.113L346,298.562l5.887-3.484V243.489l.07-.121Zm10.1,57.8-49.167,32.106-49.178-32.106V243.658l10.111-5.839v47.622l39.067,25.531,39.067-25.531V237.9l10.1,6.056Z" transform="translate(-152.782 -145.552)"/><path class="a" d="M0,559.29H5.346v20.777c0,5.066,2.863,7.458,7.359,7.458s7.414-2.392,7.414-7.458V559.29h5.35v20.685c0,8.3-6,12.241-12.8,12.241S0,588.276,0,579.975Z" transform="translate(0 -353.507)"/><path class="a" d="M93.446,602.763H88.1v-25.84h5.346v3.749a8.418,8.418,0,0,1,7.727-4.172v5.519H99.837c-3.941,0-6.38,1.641-6.38,7.131Z" transform="translate(-55.685 -364.385)"/><path class="a" d="M151.4,561.994c6.847,0,12.142,5.254,12.142,13.246s-5.339,13.43-12.142,13.43A11,11,0,0,1,142.4,584.5v3.749H137.05v-34.7H142.4v12.712A11.068,11.068,0,0,1,151.4,561.994Zm-1.174,4.643c-3.985,0-7.833,3.142-7.833,8.676s3.849,8.724,7.833,8.724,7.881-3.238,7.881-8.83S154.266,566.637,150.229,566.637Z" transform="translate(-86.624 -349.879)"/><path class="a" d="M230.843,576.5a11.014,11.014,0,0,1,8.959,4.172v-3.749H245.2v25.84H239.8v-3.845a11.116,11.116,0,0,1-9.051,4.268c-6.707,0-12.1-5.486-12.1-13.459S224.044,576.5,230.843,576.5Zm1.126,4.643c-3.985,0-7.83,3-7.83,8.584s3.845,8.83,7.83,8.83,7.833-3.142,7.833-8.724S236,581.143,231.969,581.143Z" transform="translate(-138.201 -364.385)"/><path class="a" d="M328.272,588.3c0-4.735-2.576-7.175-6.472-7.175s-6.52,2.439-6.52,7.175v14.445h-5.35V576.9h5.35v2.943a9.932,9.932,0,0,1,7.69-3.378c6.049,0,10.6,3.8,10.6,11.038v15.244h-5.3Z" transform="translate(-195.896 -364.366)"/><path class="a" d="M431.17,559.29v28.283h11.02v4.312H425.82v-32.6Z" transform="translate(-269.145 -353.507)"/><path class="a" d="M490.486,603.156c-7.41,0-12.9-5.25-12.9-13.367s5.25-13.319,12.9-13.319c7.359,0,12.572,5.111,12.572,12.712a16.562,16.562,0,0,1-.188,2.623H483.124a7.1,7.1,0,0,0,7.359,6.847,6.25,6.25,0,0,0,6.1-3.609h5.777C500.9,599.558,496.818,603.156,490.486,603.156Zm-7.315-15.667h14.305c-.1-3.985-3.238-6.516-7.223-6.516-3.613.011-6.52,2.447-7.083,6.527Z" transform="translate(-301.867 -364.366)"/><path class="a" d="M568.443,576.5a11.014,11.014,0,0,1,8.959,4.172v-3.749H582.8v25.84H577.4v-3.845a11.11,11.11,0,0,1-9.051,4.268c-6.707,0-12.1-5.486-12.1-13.459S561.644,576.5,568.443,576.5Zm1.126,4.643c-3.985,0-7.83,3-7.83,8.584s3.845,8.83,7.83,8.83,7.833-3.142,7.833-8.724S573.606,581.143,569.569,581.143Z" transform="translate(-351.586 -364.385)"/><path class="a" d="M654.946,561.994a11.858,11.858,0,0,1,8.911,4.047V553.55h5.394v34.707h-5.409v-3.893a10.706,10.706,0,0,1-8.959,4.316c-6.8,0-12.193-5.486-12.193-13.459S648.084,561.994,654.946,561.994Zm1.078,4.643c-3.985,0-7.83,3-7.83,8.584s3.845,8.83,7.83,8.83,7.833-3.142,7.833-8.724-3.812-8.691-7.848-8.691Z" transform="translate(-406.221 -349.879)"/><path class="a" d="M740.938,603.156c-6.192,0-10.552-3.657-10.788-8.348h5.519c.188,2.112,2.208,3.845,5.151,3.845,3.094,0,4.735-1.314,4.735-3.094,0-5.067-15.008-2.156-15.008-11.63,0-4.128,3.845-7.458,9.934-7.458,5.861,0,9.706,3.142,9.99,8.3h-5.313c-.188-2.252-1.921-3.8-4.831-3.8s-4.345,1.181-4.345,2.918c0,5.206,14.585,2.3,14.868,11.63C750.835,599.885,747.02,603.156,740.938,603.156Z" transform="translate(-461.501 -364.366)"/><path class="a" d="M55.75,687.87h5.066v.99H56.769v3.168h4.047v.99H56.769v4.963H55.75Z" transform="translate(-35.238 -434.778)"/><path class="a" d="M93.44,687.87h5.791v.99H94.448v3.168h4.743v.99H94.448v3.974h4.743v.99H93.44Z" transform="translate(-59.06 -434.778)"/><path class="a" d="M133.07,687.87h5.791v.99h-4.783v3.168h4.743v.99h-4.739v3.974h4.739v.99H133.07Z" transform="translate(-84.109 -434.778)"/><path class="a" d="M172.68,687.87h1.012V697h3.889v.979h-4.9Z" transform="translate(-109.145 -434.778)"/><path class="a" d="M206.63,695.673l.861-.515c.6,1.1,1.3,1.67,2.1,1.67a2,2,0,0,0,.953-.239,1.674,1.674,0,0,0,.916-1.472,1.723,1.723,0,0,0-.346-1,8.316,8.316,0,0,0-1.729-1.622,8.774,8.774,0,0,1-1.575-1.38,2.534,2.534,0,0,1-.537-1.545,2.351,2.351,0,0,1,.316-1.2,2.243,2.243,0,0,1,.89-.857,2.576,2.576,0,0,1,1.247-.313,2.667,2.667,0,0,1,1.336.368,4.617,4.617,0,0,1,1.317,1.3l-.824.625a4.017,4.017,0,0,0-.975-1,1.685,1.685,0,0,0-.868-.269,1.384,1.384,0,0,0-1,.368,1.207,1.207,0,0,0-.39.913,1.553,1.553,0,0,0,.136.64,2.381,2.381,0,0,0,.5.673c.132.129.567.464,1.306,1.012a7.4,7.4,0,0,1,1.8,1.722,2.793,2.793,0,0,1,.486,1.52,2.576,2.576,0,0,1-.832,1.91,2.814,2.814,0,0,1-2.031.813,2.984,2.984,0,0,1-1.67-.493A4.5,4.5,0,0,1,206.63,695.673Z" transform="translate(-130.603 -434.354)"/><path class="a" d="M277.36,687.87h1.012V697h3.889v.979h-4.9Z" transform="translate(-175.309 -434.778)"/><path class="a" d="M313.76,687.87h1.012v10.111H313.76Z" transform="translate(-198.316 -434.778)"/><path class="a" d="M341.92,687.87h1.034v3.793L347,687.87h1.358l-4.864,4.537,5.232,5.574h-1.343l-4.415-4.71v4.71h-1.034Z" transform="translate(-216.115 -434.778)"/><path class="a" d="M383.66,687.87h5.8v.99h-4.783v3.168h4.743v.99h-4.743v3.974h4.743v.99H383.66Z" transform="translate(-242.498 -434.778)"/><path class="a" d="M455.582,687.87l4.706,10.111h-1.1l-1.59-3.311h-4.331l-1.575,3.311h-1.13l4.783-10.111Zm-.125,2.149-1.733,3.657h3.455Z" transform="translate(-284.783 -434.778)"/><path class="a" d="M530.09,687.87H531.1v4.242h5.151V687.87h1.008v10.111h-1.008V693.1H531.1v4.879H530.09Z" transform="translate(-335.051 -434.778)"/><path class="a" d="M579.42,687.155a5.235,5.235,0,0,1,3.841,1.534,5.317,5.317,0,0,1-3.76,9.07,5.17,5.17,0,0,1-3.794-1.542,5.051,5.051,0,0,1-1.549-3.723,5.4,5.4,0,0,1,.7-2.7,5.225,5.225,0,0,1,4.559-2.653Zm.044.983a4.163,4.163,0,0,0-2.127.585,4.217,4.217,0,0,0-1.571,1.575,4.388,4.388,0,0,0-.563,2.208,4.257,4.257,0,0,0,4.261,4.286,4.345,4.345,0,0,0,2.178-.57,4.082,4.082,0,0,0,1.56-1.564,4.37,4.37,0,0,0,.563-2.208,4.278,4.278,0,0,0-.563-2.178,4.165,4.165,0,0,0-1.578-1.556A4.261,4.261,0,0,0,579.464,688.137Z" transform="translate(-362.905 -434.316)"/><path class="a" d="M626.49,697.981l1.45-10.111h.162l4.1,8.293,4.069-8.293h.162l1.472,10.111h-.993l-1-7.23-3.576,7.23h-.258l-3.617-7.285-.993,7.285Z" transform="translate(-395.982 -434.778)"/><path class="a" d="M682,687.87h5.8v.99h-4.783v3.168h4.743v.99h-4.732v3.974h4.743v.99H682Z" transform="translate(-431.068 -434.778)"/></svg>